<svg width="103" height="102" viewBox="0 0 103 102" fill="none" xmlns="http://www.w3.org/2000/svg">
<g filter="url(#filter0_b_0_198)">
<path d="M0.356689 42.0096C0.356689 14.1867 14.5229 0.0205078 42.3458 0.0205078H60.2829C88.1057 0.0205078 102.272 14.1867 102.272 42.0096V59.9467C102.272 87.7696 88.1057 101.936 60.2829 101.936H42.3458C14.5229 101.936 0.356689 87.7696 0.356689 59.9467V42.0096Z" fill="url(#paint0_linear_0_198)"/>
<path d="M1.85669 42.0096C1.85669 28.3363 5.33596 18.2845 11.9783 11.6421C18.6207 4.99977 28.6725 1.52051 42.3458 1.52051H60.2829C73.9562 1.52051 84.008 4.99977 90.6503 11.6421C97.2927 18.2845 100.772 28.3363 100.772 42.0096V59.9467C100.772 73.62 97.2927 83.6718 90.6503 90.3141C84.008 96.9565 73.9562 100.436 60.2829 100.436H42.3458C28.6725 100.436 18.6207 96.9565 11.9783 90.3141C5.33596 83.6718 1.85669 73.62 1.85669 59.9467V42.0096Z" stroke="url(#paint1_linear_0_198)" stroke-width="3"/>
</g>
<path d="M36.3282 35.3251C37.8646 36.5636 38.4413 36.4696 41.3288 36.2775L68.5459 34.6568C69.1225 34.6568 68.6427 34.0845 68.4511 33.9905L63.9283 30.7471C63.0633 30.0808 61.9079 29.3165 59.6959 29.5065L33.3439 31.4154C32.3842 31.5094 32.1906 31.9876 32.5736 32.3678L36.3282 35.3251ZM37.9614 41.6198V70.0362C37.9614 71.5628 38.7297 72.1351 40.4617 72.039L70.3727 70.3223C72.1048 70.2283 72.2984 69.1778 72.2984 67.9372V39.711C72.2984 38.4725 71.8185 37.8042 70.7578 37.8982L39.4999 39.711C38.3466 39.807 37.9614 40.3813 37.9614 41.6198ZM67.4893 43.1424C67.6808 44.0008 67.4893 44.8592 66.6243 44.9573L65.1826 45.2434V66.2205C63.9304 66.8888 62.777 67.271 61.8152 67.271C60.2747 67.271 59.8895 66.7927 58.7362 65.3641L49.3096 50.6777V64.8859L52.2918 65.5563C52.2918 65.5563 52.2918 67.273 49.8863 67.273L43.2504 67.6531C43.0588 67.273 43.2504 66.3186 43.9239 66.1285L45.6539 65.6523V46.8641L43.2545 46.672C43.0609 45.8136 43.5428 44.5751 44.8877 44.4791L52.0056 44.0029L61.8173 58.8793V45.7176L59.3149 45.4335C59.1234 44.383 59.8916 43.6207 60.8534 43.5267L67.4893 43.1424ZM31.1319 28.8403L58.5446 26.8374C61.91 26.5513 62.777 26.7413 64.8922 28.268L73.6433 34.3707C75.085 35.4191 75.5669 35.7052 75.5669 36.8497V70.3223C75.5669 72.4192 74.7987 73.6618 72.1068 73.8498L40.2702 75.7587C38.2518 75.8547 37.288 75.5686 36.2293 74.232L29.785 65.9343C28.6316 64.4077 28.1518 63.2652 28.1518 61.9286V32.1757C28.1518 30.461 28.922 29.0283 31.1319 28.8403Z" fill="black"/>
<defs>
<filter id="filter0_b_0_198" x="-11.6433" y="-11.9795" width="125.915" height="125.915" filterUnits="userSpaceOnUse" color-interpolation-filters="sRGB">
<feFlood flood-opacity="0" result="BackgroundImageFix"/>
<feGaussianBlur in="BackgroundImageFix" stdDeviation="6"/>
<feComposite in2="SourceAlpha" operator="in" result="effect1_backgroundBlur_0_198"/>
<feBlend mode="normal" in="SourceGraphic" in2="effect1_backgroundBlur_0_198" result="shape"/>
</filter>
<linearGradient id="paint0_linear_0_198" x1="0.356689" y1="0.0205078" x2="51.5868" y2="51.2506" gradientUnits="userSpaceOnUse">
<stop stop-opacity="0.3"/>
<stop offset="1" stop-opacity="0.1"/>
</linearGradient>
<linearGradient id="paint1_linear_0_198" x1="10.9842" y1="10.648" x2="92.4619" y2="92.1258" gradientUnits="userSpaceOnUse">
<stop stop-color="white" stop-opacity="0.6"/>
<stop offset="0.395833" stop-color="white" stop-opacity="0"/>
<stop offset="0.586815" stop-opacity="0"/>
<stop offset="1" stop-opacity="0.3"/>
</linearGradient>
</defs>
</svg>
