<svg width="109" height="220" viewBox="0 0 109 220" fill="none" xmlns="http://www.w3.org/2000/svg">
<path d="M-51.49 206.84V47.7216L-30.0465 35.6292L-0.370265 31.7945L6.0197 157.115L-0.370265 193.823L-25.9301 206.643L-51.49 206.84Z" fill="#F39321"/>
<path d="M-0.370605 193.823V42.2195L25.1893 45.1299L50.7491 58.1466C50.7491 60.1357 50.7491 204.852 50.7491 206.84L25.1893 206.643L-0.370605 193.823Z" fill="#F3A141"/>
<path fill-rule="evenodd" clip-rule="evenodd" d="M-13.3709 197.134C-27.264 200.671 -47.205 205.749 -51.4901 206.84L-0.370594 219.659H-0.370384L50.7491 206.84L37.8715 203.561C23.9737 200.022 3.92796 194.918 -0.370354 193.823L-0.370384 193.823C-0.370419 193.823 -0.370457 193.823 -0.370491 193.823C-0.370525 193.823 -0.37056 193.823 -0.370594 193.823V193.823C-2.27636 194.309 -7.2335 195.571 -13.3709 197.134Z" fill="#F8C67C"/>
<path d="M-51.4901 35.3864V-45.9999C-45.1466 -44.409 -6.62275 -34.7484 -0.370384 -33.1806L6.01958 7.12542L-0.370384 47.4314C-7.91566 47.0631 -23.802 46.2871 -28.2732 46.0687C-31.0929 44.7718 -48.6602 36.6884 -51.4901 35.3864V35.3864Z" fill="#6BCD49"/>
<path d="M50.749 35.3865L57.1389 -5.30625L50.749 -45.9994C44.5652 -44.4487 5.85395 -34.741 -0.370728 -33.1801C-0.370728 -28.704 -0.370728 42.9562 -0.370728 47.4319L25.1891 46.4965L50.749 35.3865Z" fill="#5EBA3F"/>
<path d="M108.259 48.9373V-31.5781C87.6727 -36.7405 70.6524 -41.0084 50.7489 -45.9998C50.7489 -41.4759 50.7489 30.8629 50.7489 35.3864L79.5037 47.4318L108.259 48.9373Z" fill="#6BCD49"/>
<path fill-rule="evenodd" clip-rule="evenodd" d="M50.7491 63.359L108.258 48.9374C101.265 47.2893 57.7581 37.0378 50.749 35.3866L50.749 35.3865L50.7489 35.3866C50.7489 35.3865 50.7488 35.3865 50.7488 35.3865V35.3866L25.1891 41.409L-0.370728 47.4315C1.84443 48.1217 3.96408 48.7821 5.99231 49.4141C13.6533 51.8011 20.01 53.7817 25.2837 55.4244C48.2113 62.5682 50.6588 63.3308 50.7488 63.3589V63.3589C50.7248 63.3514 50.5543 63.2984 50.7488 63.359V63.3591L50.7489 63.3591C50.7489 63.3591 50.749 63.3591 50.749 63.3591L50.7491 63.359C50.7507 63.3595 50.7515 63.3597 50.7515 63.3597C50.7515 63.3597 50.7508 63.3595 50.7491 63.359Z" fill="#C9F87C"/>
</svg>
