<svg width="48" height="48" viewBox="0 0 48 48" fill="none" xmlns="http://www.w3.org/2000/svg">
<g filter="url(#filter0_b_0_184)">
<path d="M0.765381 19.7136C0.765381 6.83261 7.32382 0.27417 20.2048 0.27417H28.509C41.3899 0.27417 47.9484 6.83261 47.9484 19.7136V28.0178C47.9484 40.8987 41.3899 47.4572 28.509 47.4572H20.2048C7.32382 47.4572 0.765381 40.8987 0.765381 28.0178V19.7136Z" fill="url(#paint0_linear_0_184)"/>
<path d="M2.26538 19.7136C2.26538 13.5112 3.8427 9.09685 6.71538 6.22417C9.58806 3.35149 14.0024 1.77417 20.2048 1.77417H28.509C34.7113 1.77417 39.1257 3.35149 41.9984 6.22417C44.8711 9.09685 46.4484 13.5112 46.4484 19.7136V28.0178C46.4484 34.2201 44.8711 38.6345 41.9984 41.5072C39.1257 44.3798 34.7113 45.9572 28.509 45.9572H20.2048C14.0024 45.9572 9.58806 44.3798 6.71538 41.5072C3.8427 38.6345 2.26538 34.2201 2.26538 28.0178V19.7136Z" stroke="url(#paint1_linear_0_184)" stroke-width="3"/>
</g>
<path d="M11.0542 23.3518C11.0542 17.3245 11.0542 14.3108 12.9224 12.4314C14.8018 10.5632 17.8155 10.5632 23.8428 10.5632H24.9549C30.9822 10.5632 33.9959 10.5632 35.8753 12.4314C37.7435 14.3108 37.7435 17.3245 37.7435 23.3518V24.4639C37.7435 30.4912 37.7435 33.5049 35.8753 35.3843C33.9959 37.2525 30.9822 37.2525 24.9549 37.2525H23.8428C17.8155 37.2525 14.8018 37.2525 12.9224 35.3843C11.0542 33.5049 11.0542 30.4912 11.0542 24.4639V23.3518Z" fill="#2787F5"/>
<path fill-rule="evenodd" clip-rule="evenodd" d="M18.2824 18.9035H16.3363C15.7803 18.9035 15.6691 19.1704 15.6691 19.4595C15.6691 19.9711 16.3363 22.5288 18.7383 25.9095C20.3508 28.2114 22.6194 29.4681 24.6767 29.4681C25.9111 29.4681 26.0668 29.19 26.0668 28.7119V26.9659C26.0668 26.4099 26.178 26.2987 26.5783 26.2987C26.8675 26.2987 27.3568 26.4433 28.5133 27.5553C29.8367 28.8787 30.048 29.4681 30.793 29.4681H32.7391C33.2952 29.4681 33.5732 29.19 33.4064 28.6451C33.2396 28.0891 32.6057 27.3107 31.7717 26.3654C31.3268 25.8205 30.6374 25.2534 30.4372 24.9642C30.1481 24.5861 30.2148 24.4193 30.4372 24.0968C30.4372 24.0968 32.8059 20.7607 33.0505 19.6152C33.1729 19.2038 33.0505 18.9035 32.4611 18.9035H30.515C30.333 18.8926 30.1524 18.9409 30.0001 19.0411C29.8477 19.1413 29.7319 19.2881 29.6699 19.4595C29.6699 19.4595 28.669 21.8616 27.2789 23.4296C26.823 23.8855 26.6117 24.0301 26.3671 24.0301C26.2559 24.0301 26.0668 23.8855 26.0668 23.4741V19.6152C26.0668 19.1259 25.9222 18.9035 25.5108 18.9035H22.4526C22.1412 18.9035 21.9522 19.1259 21.9522 19.3483C21.9522 19.8154 22.6639 19.9266 22.7306 21.2388V24.1079C22.7306 24.7418 22.6194 24.853 22.3748 24.853C21.7075 24.853 20.1062 22.4287 19.1498 19.6597C18.9719 19.1259 18.7828 18.9035 18.2824 18.9035Z" fill="white"/>
<defs>
<filter id="filter0_b_0_184" x="-11.2346" y="-11.7258" width="71.183" height="71.183" filterUnits="userSpaceOnUse" color-interpolation-filters="sRGB">
<feFlood flood-opacity="0" result="BackgroundImageFix"/>
<feGaussianBlur in="BackgroundImageFix" stdDeviation="6"/>
<feComposite in2="SourceAlpha" operator="in" result="effect1_backgroundBlur_0_184"/>
<feBlend mode="normal" in="SourceGraphic" in2="effect1_backgroundBlur_0_184" result="shape"/>
</filter>
<linearGradient id="paint0_linear_0_184" x1="0.765381" y1="0.27417" x2="24.483" y2="23.9918" gradientUnits="userSpaceOnUse">
<stop stop-color="#2787F5" stop-opacity="0.6"/>
<stop offset="1" stop-color="#2787F5" stop-opacity="0.2"/>
</linearGradient>
<linearGradient id="paint1_linear_0_184" x1="5.68553" y1="5.19432" x2="43.4067" y2="42.9155" gradientUnits="userSpaceOnUse">
<stop stop-color="white" stop-opacity="0.6"/>
<stop offset="0.395833" stop-color="white" stop-opacity="0"/>
<stop offset="0.586815" stop-color="#2787F5" stop-opacity="0"/>
<stop offset="1" stop-color="#2787F5" stop-opacity="0.5"/>
</linearGradient>
</defs>
</svg>
